# xmcd CD database file
#
# Track frame offsets:
#	150
#	16236
#	28358
#	41689
#	56936
#	71532
#	87157
#	107291
#	119500
#	132226
#	147711
#	159556
#	173416
#	192118
#	209651
#	222933
#	238763
#	252678
#
# Disc length: 3562 seconds
#
# Revision: 0
# Processed by: cddbd v1.5.1PL0 Copyright (c) Steve Scherf et al.
# Submitted via: CDex 1.51
#
DISCID=120de812
DTITLE=EARL KING - STREET PARADE
DYEAR=1900
DGENRE=Blues
TTITLE0=Am I Your Dog Pt1
TTITLE1=The Real Mc Coy
TTITLE2=A Part Of Me
TTITLE3=Fallin'
TTITLE4=Streer Parade Pt1
TTITLE5=You Made Me Feel Good
TTITLE6=Some People
TTITLE7=A Mother's Love
TTITLE8=Medieval Days
TTITLE9=This Is What I Call Living
TTITLE10=Do The Grind
TTITLE11=Street Parade Pt2
TTITLE12=All My Love
TTITLE13=I'm Going To Keep On Trying
TTITLE14=Up On The Hill
TTITLE15=Love Look Out For Me
TTITLE16=Mama and Papa
TTITLE17=Am I Your Dog Pt2
EXTD=
EXTT0=
EXTT1=
EXTT2=
EXTT3=
EXTT4=
EXTT5=
EXTT6=
EXTT7=
EXTT8=
EXTT9=
EXTT10=
EXTT11=
EXTT12=
EXTT13=
EXTT14=
EXTT15=
EXTT16=
EXTT17=
PLAYORDER=
